<svg width="100" height="34" viewBox="0 0 100 34" fill="none" xmlns="http://www.w3.org/2000/svg">
<rect width="100" height="34" rx="5" fill="#0D0D0D"/>
<path d="M31.5284 15.5724C31.5075 13.2983 33.4356 12.192 33.5238 12.1405C32.4318 10.5862 30.7393 10.3738 30.1445 10.3568C28.723 10.2108 27.3441 11.1873 26.62 11.1873C25.8814 11.1873 24.7663 10.371 23.5645 10.3949C22.018 10.4182 20.5712 11.2924 19.7777 12.6499C18.1401 15.4178 19.3614 19.4854 20.9303 21.7228C21.7152 22.8192 22.6323 24.0419 23.8326 23.9989C25.007 23.9523 25.4456 23.2686 26.8628 23.2686C28.267 23.2686 28.6789 23.9989 29.9031 23.9714C31.1635 23.9523 31.957 22.8707 32.7144 21.7651C33.6213 20.5099 33.9855 19.2723 34 19.2088C33.9711 19.199 31.553 18.2972 31.5284 15.5724V15.5724ZM29.2159 8.88504C29.8475 8.11386 30.2796 7.06469 30.1597 6C29.2455 6.03951 28.1022 6.61737 27.4439 7.37161C26.8614 8.03625 26.341 9.12564 26.4755 10.1501C27.5024 10.2249 28.5568 9.64423 29.2159 8.88504V8.88504Z" fill="white"/>
<path d="M47.3549 21.9764H46.2724L45.6795 19.9434H43.6186L43.0538 21.9764H42L44.0423 15.0552H45.3035L47.3549 21.9764V21.9764ZM45.5008 19.0905L44.9646 17.2832C44.9079 17.0986 44.8011 16.6638 44.6448 15.9794H44.6257C44.5628 16.2738 44.4622 16.7085 44.3245 17.2832L43.7973 19.0905H45.5008ZM52.5967 19.4197C52.5967 20.2685 52.3856 20.9394 51.9628 21.4319C51.5844 21.8703 51.114 22.0892 50.553 22.0892C49.9472 22.0892 49.5116 21.8537 49.247 21.3814V24H48.2309V18.6261C48.2309 18.093 48.218 17.5464 48.1932 16.9857H49.0869L49.1436 17.7768H49.1627C49.5016 17.1808 50.0158 16.8828 50.706 16.8828C51.2455 16.8828 51.6959 17.1152 52.0563 17.5807C52.4161 18.0472 52.5967 18.6599 52.5967 19.4197ZM51.5615 19.4603C51.5615 18.9745 51.4614 18.5741 51.2603 18.2584C51.0406 17.9302 50.7455 17.7659 50.3757 17.7659C50.125 17.7659 49.8972 17.8574 49.6936 18.0379C49.4896 18.2199 49.3562 18.4576 49.2938 18.7519C49.2659 18.862 49.25 18.9753 49.2466 19.0895V19.9221C49.2466 20.2846 49.3486 20.5909 49.5526 20.8416C49.7566 21.0912 50.0216 21.2166 50.3476 21.2166C50.7303 21.2166 51.0282 21.0548 51.2412 20.7339C51.4548 20.412 51.5615 19.9876 51.5615 19.4603V19.4603ZM57.8572 19.4197C57.8572 20.2685 57.6461 20.9394 57.2233 21.4319C56.8444 21.8703 56.3745 22.0892 55.813 22.0892C55.2072 22.0892 54.7716 21.8537 54.507 21.3814V24H53.4909V18.6261C53.4909 18.093 53.478 17.5464 53.4532 16.9857H54.3469L54.4036 17.7768H54.4227C54.7611 17.1808 55.2754 16.8828 55.966 16.8828C56.505 16.8828 56.9555 17.1152 57.3167 17.5807C57.6761 18.0472 57.8572 18.6599 57.8572 19.4197V19.4197ZM56.8215 19.4603C56.8215 18.9745 56.721 18.5741 56.5198 18.2584C56.3001 17.9302 56.006 17.7659 55.6362 17.7659C55.3855 17.7659 55.1576 17.8574 54.9532 18.0379C54.7492 18.2199 54.6162 18.4576 54.5538 18.7519C54.5228 18.8892 54.5061 19.001 54.5061 19.0895V19.9221C54.5061 20.2846 54.6086 20.5909 54.8116 20.8416C55.0156 21.0907 55.2806 21.2166 55.6076 21.2166C55.9908 21.2166 56.2887 21.0548 56.5012 20.7339C56.7148 20.412 56.8215 19.9876 56.8215 19.4603V19.4603ZM63.7387 20.0349C63.7387 20.6242 63.55 21.1032 63.1749 21.473C62.7621 21.8765 62.1859 22.0788 61.4471 22.0788C60.7646 22.0788 60.2175 21.9353 59.8047 21.6477L60.0397 20.7235C60.4853 21.0116 60.9748 21.1552 61.5077 21.1552C61.8909 21.1552 62.1888 21.0605 62.4013 20.8728C62.6144 20.6845 62.7221 20.4328 62.7221 20.1187C62.7221 19.8373 62.633 19.6017 62.4581 19.4098C62.2822 19.2184 61.9914 19.04 61.583 18.8762C60.4725 18.4243 59.9167 17.7633 59.9167 16.8937C59.9167 16.3258 60.1131 15.8608 60.5049 15.4973C60.8966 15.1343 61.4162 14.9528 62.0625 14.9528C62.6397 14.9528 63.1206 15.0625 63.5023 15.2815L63.2473 16.1854C62.888 15.9732 62.4824 15.8671 62.0286 15.8671C61.6702 15.8671 61.389 15.9633 61.1879 16.1547C61.0187 16.3258 60.9329 16.5343 60.9329 16.7819C60.9329 17.0549 61.0306 17.2817 61.225 17.4595C61.3938 17.6234 61.7017 17.8017 62.1468 17.9931C62.693 18.2334 63.0944 18.5132 63.3512 18.8346C63.6101 19.156 63.7387 19.557 63.7387 20.0349ZM67.107 17.8179H65.987V20.2409C65.987 20.8572 66.1843 21.1646 66.5799 21.1646C66.7615 21.1646 66.9121 21.1479 67.0313 21.1131L67.0594 21.9551C66.8592 22.0367 66.5956 22.0778 66.2691 22.0778C65.8678 22.0778 65.5542 21.9441 65.3278 21.6768C65.1024 21.4095 64.9889 20.9617 64.9889 20.3314V17.8158H64.3217V16.9837H64.9889V16.0699L65.987 15.7412V16.9837H67.107V17.8179V17.8179ZM72.1507 19.44C72.1507 20.2071 71.9495 20.8369 71.5482 21.3294C71.1283 21.8365 70.5697 22.0892 69.8734 22.0892C69.2013 22.0892 68.667 21.8464 68.2686 21.3611C67.8701 20.8749 67.6709 20.2622 67.6709 19.5232C67.6709 18.7498 67.8768 18.1164 68.2872 17.6239C68.6985 17.1309 69.2523 16.8843 69.9487 16.8843C70.6197 16.8843 71.1588 17.1277 71.5668 17.6135C71.9567 18.0847 72.1507 18.6932 72.1507 19.44ZM71.0973 19.4655C71.0973 19.0083 71.0068 18.6162 70.8252 18.288C70.6121 17.8917 70.3071 17.6936 69.912 17.6936C69.5049 17.6936 69.1927 17.8917 68.9802 18.288C68.7981 18.6162 68.7075 19.0151 68.7075 19.4863C68.7075 19.9439 68.7981 20.3371 68.9802 20.6642C69.1999 21.0605 69.5064 21.2587 69.9034 21.2587C70.2918 21.2587 70.5964 21.0564 70.8166 20.6544C71.0034 20.3184 71.0973 19.9237 71.0973 19.4655ZM75.4551 17.9609C75.3494 17.9401 75.2422 17.9298 75.1348 17.9302C74.7773 17.9302 74.5009 18.0769 74.3064 18.3723C74.1377 18.6323 74.0529 18.961 74.0529 19.3578V21.9764H73.0367V18.5574C73.0376 18.0335 73.0277 17.5097 73.0071 16.9863H73.8922L73.9294 17.9411H73.9575C74.0652 17.613 74.234 17.3482 74.4656 17.1501C74.6776 16.9769 74.9353 16.8832 75.2001 16.8828C75.294 16.8828 75.3788 16.8901 75.4541 16.9031L75.4551 17.9609V17.9609ZM79.9997 19.245C80.0022 19.4135 79.9898 19.5819 79.9625 19.7479H76.914C76.9255 20.2409 77.0732 20.6185 77.3563 20.8785C77.6132 21.1105 77.9454 21.227 78.3534 21.227C78.8048 21.227 79.2166 21.1489 79.5869 20.9914L79.7461 21.7606C79.3133 21.9665 78.8024 22.069 78.2128 22.069C77.5036 22.069 76.9469 21.8412 76.5418 21.3866C76.1376 20.9316 75.935 20.3199 75.935 19.5539C75.935 18.8019 76.1233 18.1752 76.5003 17.6754C76.895 17.1418 77.4283 16.875 78.0994 16.875C78.7585 16.875 79.2576 17.1418 79.5964 17.6754C79.8648 18.0982 79.9997 18.6224 79.9997 19.245V19.245ZM79.0307 18.9574C79.0378 18.6281 78.9711 18.3447 78.8334 18.105C78.6575 17.796 78.3868 17.6421 78.0241 17.6421C77.6919 17.6421 77.4211 17.7924 77.2152 18.094C77.046 18.3338 76.9455 18.6219 76.9145 18.9563L79.0307 18.9574ZM43.3255 12.6083C43.0428 12.6083 42.7983 12.5932 42.5948 12.5677V9.22155C42.8795 9.17357 43.1671 9.14992 43.4551 9.15082C44.6205 9.15082 45.1571 9.77647 45.1571 10.7963C45.1571 11.9727 44.5232 12.6083 43.3255 12.6083ZM43.4961 9.57988C43.3388 9.57988 43.2049 9.59028 43.0938 9.61525V12.1589C43.1539 12.1693 43.2692 12.174 43.4313 12.174C44.1948 12.174 44.6295 11.6997 44.6295 10.8114C44.6295 10.0193 44.2363 9.57988 43.4961 9.57988V9.57988ZM46.8296 12.6338C46.1728 12.6338 45.7472 12.0986 45.7472 11.3721C45.7472 10.6148 46.1819 10.075 46.8668 10.075C47.514 10.075 47.9492 10.5847 47.9492 11.332C47.9492 12.0986 47.5007 12.6338 46.8296 12.6338ZM46.8487 10.4734C46.4879 10.4734 46.2567 10.8416 46.2567 11.3565C46.2567 11.8615 46.4926 12.2297 46.8439 12.2297C47.1952 12.2297 47.4311 11.836 47.4311 11.3461C47.4311 10.8468 47.1999 10.4734 46.8487 10.4734ZM51.6945 10.1254L50.9915 12.5781H50.5334L50.2422 11.513C50.1698 11.2525 50.1095 10.9881 50.0616 10.7209H50.0521C50.0154 10.9882 49.9458 11.2561 49.8719 11.513L49.5621 12.5781H49.0993L48.4377 10.1254H48.9511L49.2056 11.2914C49.2656 11.5692 49.3162 11.8313 49.3581 12.0788H49.3676C49.4043 11.8724 49.4644 11.6144 49.5526 11.2967L49.8719 10.126H50.2789L50.5844 11.2717C50.6583 11.5494 50.7184 11.8219 50.7651 12.0794H50.7784C50.8108 11.8271 50.8618 11.5593 50.9309 11.2717L51.2041 10.126L51.6945 10.1254V10.1254ZM54.2826 12.5781H53.7831V11.1698C53.7831 10.736 53.6305 10.5186 53.3298 10.5186C53.0338 10.5186 52.8303 10.7963 52.8303 11.1193V12.5781H52.3308V10.8265C52.3308 10.6096 52.326 10.3772 52.3122 10.1249H52.7516L52.775 10.5035H52.7888C52.9232 10.2414 53.1959 10.075 53.5014 10.075C53.9732 10.075 54.283 10.4687 54.283 11.1094L54.2826 12.5781V12.5781ZM55.66 12.5781H55.16V9H55.66V12.5781ZM57.4812 12.6338C56.8249 12.6338 56.3988 12.0986 56.3988 11.3721C56.3988 10.6148 56.8334 10.075 57.5179 10.075C58.1656 10.075 58.6003 10.5847 58.6003 11.332C58.6008 12.0986 58.1518 12.6338 57.4812 12.6338ZM57.4998 10.4734C57.139 10.4734 56.9078 10.8416 56.9078 11.3565C56.9078 11.8615 57.1442 12.2297 57.4945 12.2297C57.8463 12.2297 58.0817 11.836 58.0817 11.3461C58.0822 10.8468 57.8515 10.4734 57.4998 10.4734V10.4734ZM60.5697 12.5781L60.5335 12.2957H60.5201C60.3676 12.523 60.145 12.6338 59.8629 12.6338C59.4601 12.6338 59.1741 12.3259 59.1741 11.9119C59.1741 11.3065 59.655 10.9934 60.4877 10.9934V10.9482C60.4877 10.6252 60.3309 10.4635 60.0211 10.4635C59.7995 10.4635 59.605 10.5243 59.4339 10.6455L59.3324 10.2872C59.5402 10.1457 59.7995 10.075 60.104 10.075C60.6912 10.075 60.9877 10.413 60.9877 11.0897V11.993C60.9877 12.2406 60.9977 12.4325 61.0201 12.5786L60.5697 12.5781V12.5781ZM60.5011 11.3565C59.9463 11.3565 59.6679 11.5031 59.6679 11.8511C59.6679 12.1085 59.8114 12.2343 60.0106 12.2343C60.2646 12.2343 60.5011 12.0227 60.5011 11.7351V11.3565V11.3565ZM63.4132 12.5781L63.3899 12.1844H63.376C63.2326 12.4819 62.9914 12.6338 62.6544 12.6338C62.1125 12.6338 61.7112 12.1137 61.7112 11.3819C61.7112 10.6148 62.1273 10.0745 62.6954 10.0745C62.9962 10.0745 63.2092 10.1853 63.3293 10.4078H63.3393V9H63.8393V11.9171C63.8393 12.1543 63.8446 12.3763 63.8579 12.5781H63.4132ZM63.3393 11.1349C63.3393 10.7917 63.1311 10.4989 62.8131 10.4989C62.4428 10.4989 62.2164 10.8572 62.2164 11.3617C62.2164 11.8563 62.4514 12.1948 62.8031 12.1948C63.1172 12.1948 63.3393 11.8968 63.3393 11.5437V11.1349ZM67.0093 12.6338C66.353 12.6338 65.9274 12.0986 65.9274 11.3721C65.9274 10.6148 66.3621 10.075 67.0465 10.075C67.6942 10.075 68.1289 10.5847 68.1289 11.332C68.1294 12.0986 67.6809 12.6338 67.0093 12.6338ZM67.0279 10.4734C66.6676 10.4734 66.4364 10.8416 66.4364 11.3565C66.4364 11.8615 66.6724 12.2297 67.0231 12.2297C67.3749 12.2297 67.6103 11.836 67.6103 11.3461C67.6113 10.8468 67.3801 10.4734 67.0279 10.4734ZM70.8152 12.5781H70.3152V11.1698C70.3152 10.736 70.1627 10.5186 69.8619 10.5186C69.5659 10.5186 69.3629 10.7963 69.3629 11.1193V12.5781H68.8629V10.8265C68.8629 10.6096 68.8581 10.3772 68.8443 10.1249H69.2838L69.3071 10.5035H69.3209C69.4549 10.2414 69.728 10.0745 70.033 10.0745C70.5049 10.0745 70.8152 10.4682 70.8152 11.1089V12.5781ZM74.1758 10.5342H73.6263V11.7252C73.6263 12.0284 73.7226 12.1797 73.917 12.1797C74.0052 12.1797 74.0791 12.1693 74.1386 12.1543L74.1525 12.5682C74.0557 12.6088 73.9261 12.6291 73.765 12.6291C73.3713 12.6291 73.1358 12.3919 73.1358 11.771V10.5342H72.8079V10.1254H73.1358V9.6761L73.6263 9.51435V10.1249H74.1758V10.5342V10.5342ZM76.8201 12.5781H76.3211V11.1802C76.3211 10.7412 76.1691 10.5191 75.8678 10.5191C75.609 10.5191 75.3679 10.711 75.3679 11.0995V12.5781H74.8688V9H75.3679V10.4734H75.3779C75.5351 10.2061 75.763 10.0745 76.0537 10.0745C76.5294 10.0745 76.8201 10.4781 76.8201 11.1193V12.5781V12.5781ZM79.5292 11.4828H78.0303C78.0398 11.9473 78.3215 12.2094 78.7385 12.2094C78.9602 12.2094 79.1641 12.1688 79.3443 12.0934L79.422 12.472C79.2094 12.5729 78.9592 12.6234 78.668 12.6234C77.965 12.6234 77.5489 12.1387 77.5489 11.3871C77.5489 10.6351 77.975 10.0698 78.6117 10.0698C79.1861 10.0698 79.5464 10.5342 79.5464 11.2358C79.5496 11.3186 79.5439 11.4015 79.5292 11.4828V11.4828ZM79.0712 11.0943C79.0712 10.7157 78.8963 10.4484 78.577 10.4484C78.29 10.4484 78.0632 10.7209 78.0307 11.0943H79.0712V11.0943Z" fill="white"/>
</svg>
